<?xml version="1.0" encoding="UTF-8"?>
<svg width="126px" height="65px" viewBox="0 0 126 65" version="1.1" xmlns="http://www.w3.org/2000/svg" xmlns:xlink="http://www.w3.org/1999/xlink">
    <!-- Generator: sketchtool 52.6 (67491) - http://www.bohemiancoding.com/sketch -->
    <title>485BBA2E-2EBD-4494-89B9-99FE61D4B503</title>
    <desc>Created with sketchtool.</desc>
    <defs>
        <polygon id="path-1" points="0.7347 0.212425532 30.3388622 0.212425532 30.3388622 38.8586872 0.7347 38.8586872"></polygon>
    </defs>
    <g id="Symbols" stroke="none" stroke-width="1" fill="none" fill-rule="evenodd">
        <g id="Logo_FutureEats">
            <g id="Group-14" transform="translate(0.000000, 12.000000)">
                <path d="M33.4513196,7.42002616 C33.4513196,6.92424865 33.1476407,6.53632156 32.5402829,6.25708094 C31.9329252,5.97784031 31.1741372,5.76882787 30.2622821,5.62920756 C29.352064,5.48958725 28.3567176,5.41935907 27.279517,5.41935907 C26.2014979,5.41935907 25.176684,5.43608007 24.2050753,5.46617786 C23.2637526,6.92424865 22.184915,8.80034433 20.971018,11.0953009 C19.757121,13.3910936 18.5571393,15.8875382 17.3727098,18.5854708 C19.559034,18.2134287 21.6242141,17.6014402 23.5674315,16.7478334 C25.5106489,15.8958987 27.2189449,14.9336054 28.6923195,13.8634617 C30.1640571,12.7941541 31.3255674,11.6930765 32.176032,10.5610651 C33.025678,9.4282177 33.4513196,8.3814834 33.4513196,7.42002616 M18.0561919,24.9595142 C18.7846938,26.1074106 19.6654444,27.2695197 20.6984437,28.4475139 C21.7306245,29.6271801 22.9297877,30.6881272 24.2959334,31.6353716 C25.6620791,32.5809439 27.2033926,33.355962 28.9190555,33.9612621 C30.6347184,34.5657261 32.5550167,34.8683761 34.6807688,34.8683761 C34.4990526,35.8289973 34.0963302,36.7361113 33.4742387,37.5897181 C32.8513287,38.4416528 32.0622547,39.0854111 31.1061983,39.520993 C30.1493233,39.9540668 29.0401997,40.0936871 27.7804644,39.9390179 C26.5199105,39.7835127 25.1840509,39.1865731 23.7728854,38.1481993 C22.3600829,37.1089894 20.8801599,35.5430682 19.3314795,33.4495996 C17.782799,31.356131 16.2349371,28.5871342 14.6854382,25.1451173 C14.1386525,26.5722542 13.6532574,27.9835062 13.2284344,29.3788733 C12.8019743,30.7742404 12.4540942,32.1069037 12.1807013,33.3793714 C11.9073085,34.6501671 11.7174069,35.8448822 11.6109965,36.9618447 C11.5045861,38.0779711 11.511953,39.0703622 11.6347342,39.9390179 C11.0568439,39.9390179 10.4339339,39.8529048 9.76600403,39.6831867 C9.09807421,39.5126325 8.47516416,39.217507 7.89891097,38.7994821 C7.32183925,38.3806211 6.84381104,37.8221399 6.4640078,37.1240383 C6.08420457,36.4267728 5.89512149,35.5656416 5.89512149,34.5423167 C5.89512149,33.1461136 6.20616725,31.4723419 6.82907729,29.5184936 C7.45035026,27.5646453 8.24760963,25.4862256 9.22003688,23.2849065 C8.36957231,22.6954915 7.70164248,21.9430467 7.21542886,21.0275722 C6.72921524,20.1137698 6.48774551,19.0361016 6.48774551,17.7945677 C8.06507489,18.3221151 9.72098425,18.6632234 11.4521994,18.8187287 C12.1193107,17.5153271 12.8641834,16.2286465 13.684362,14.9570148 C14.503722,13.6853831 15.3239005,12.4605702 16.1432605,11.28174 C16.9626205,10.1037459 17.7672468,9.01771727 18.5571393,8.02532619 C19.3470318,7.03293512 20.0444291,6.16427941 20.6526054,5.41935907 C18.9516762,5.51299664 17.1148692,5.80812221 15.1413658,6.30389972 C13.1670438,6.80051329 11.2696647,7.50613929 9.44759141,8.41994168 C7.62551813,9.33541618 5.99334647,10.4523787 4.55107642,11.7699931 C3.10962492,13.0884436 2.09954477,14.6008576 1.52247304,16.3063991 C0.338043557,14.2589133 -0.15553694,12.4605702 0.0425500917,10.9096979 C0.240637124,9.35882557 0.884829249,8.01780175 1.97840063,6.88495431 C3.07115347,5.75377898 4.49868977,4.80820669 6.25937244,4.0474014 C8.02005511,3.28826821 9.86504755,2.68296818 11.7935312,2.23317341 C13.7211963,1.78421468 15.619394,1.46567972 17.486487,1.27924062 C19.3543986,1.09363757 20.9554657,1 22.2921439,1 C24.0225406,1 25.6555308,1.09363757 27.1886589,1.27924062 C28.721787,1.46567972 30.0650136,1.81431247 31.219157,2.32597493 C32.3733005,2.83847344 33.2925225,3.55162389 33.9751861,4.46626234 C34.6586682,5.38173683 35,6.58314035 35,8.07130893 C35,10.3043979 34.4916858,12.3978665 33.4742387,14.3517148 C32.4559732,16.3063991 31.1356658,18.0278256 29.5116795,19.5159942 C27.8868748,21.0049988 26.0648015,22.2222873 24.0462783,23.1678596 C22.0261179,24.1142679 20.0305139,24.7112074 18.0561919,24.9595142" id="Fill-1" fill="#FEFEFE"></path>
                <path d="M50.5055298,24.3758566 C49.9314751,24.9502085 49.3651547,25.5164135 48.8074279,26.076101 C48.2497011,26.6349739 47.7392393,27.126228 47.2777612,27.5498634 C46.8154237,27.9726841 46.4244134,28.3197393 46.106449,28.5918436 C45.7876252,28.8639479 45.5805186,29 45.4842699,29 C45.0382603,29 44.6077193,28.9169023 44.1935062,28.7507069 C43.7792931,28.5845114 43.3968764,28.3726937 43.0453968,28.1160684 C42.6947766,27.8594431 42.4163428,27.5718599 42.2092363,27.2541333 C42.0012704,26.9372215 41.8981468,26.6276417 41.8981468,26.3253942 C41.8981468,25.8716155 42.0339262,25.3958403 42.3046256,24.897254 C42.5744657,24.3986678 42.8614931,23.9383716 43.1657077,23.5139215 C43.4682036,23.0919155 43.7311687,22.7367135 43.9546032,22.4491302 C44.1771783,22.1623616 44.2416305,22.0181626 44.1462412,22.0181626 C44.0499925,22.0181626 43.7157002,22.2609383 43.1416455,22.7440456 C42.5675908,23.2279676 41.8904125,23.8243159 41.1083919,24.5339052 C40.3272306,25.2443092 39.5228665,26.0003355 38.6944403,26.8011693 C37.8651547,27.6020032 37.1475863,28.3352183 36.5425945,29 C36.3191601,29 35.9513526,28.9706714 35.4426095,28.9087555 C34.9321477,28.8484689 34.4216858,28.7050846 33.9120834,28.4786026 C33.4033403,28.2521206 32.955612,27.934394 32.5731953,27.5262376 C32.1907787,27.1180812 32,26.5518762 32,25.8259932 C32,25.1921695 32.1435137,24.4059999 32.430541,23.4691139 C32.716709,22.5322279 33.1231879,21.5578665 33.6499776,20.5452149 C34.1750486,19.5333781 34.7972276,18.5133944 35.514796,17.4852638 C36.231505,16.457948 37.0281348,15.5438731 37.9055448,14.7430392 C38.781236,13.9422054 39.7059109,13.2847558 40.6787102,12.7706906 C41.6506501,12.25744 42.6466522,12 43.6675758,12 C43.9855403,12 44.3920191,12.0684334 44.8870124,12.2044856 C45.380287,12.3405377 45.8589523,12.5515407 46.3212898,12.839124 C46.7827679,13.1258926 47.1823718,13.4810946 47.5166642,13.9039153 C47.8518159,14.3275507 48.0185324,14.810658 48.0185324,15.3548665 C48.0185324,15.8387885 47.9790016,16.2542771 47.8999402,16.6013322 C47.8191601,16.9492021 47.7478329,17.2433028 47.68424,17.4852638 C47.5561949,17.7875114 47.4444777,18.0449514 47.3490883,18.2559544 L46.106449,17.7117458 C46.2645718,17.1976805 46.3290241,16.7300522 46.298087,16.3072315 C46.2645718,15.974026 46.1459797,15.6571141 45.9388731,15.3548665 C45.7309072,15.0534337 45.3570841,14.9010878 44.8148259,14.9010878 C44.1462412,14.9010878 43.4682036,15.1731921 42.783291,15.7174007 C42.0966597,16.2616092 41.4349499,16.9492021 40.7981617,17.7793645 C40.1605141,18.6119711 39.5701315,19.5032348 39.029592,20.4547851 C38.4864744,21.4063354 38.0404648,22.2984138 37.6898446,23.1293909 C37.3392243,23.960368 37.1080556,24.6479609 36.9963384,25.1921695 C36.8846211,25.7355633 36.9404797,26.0076676 37.1647736,26.0076676 C37.5145344,25.5848469 38.0885891,24.9958307 38.8860783,24.2398045 C39.6818488,23.4845929 40.5274623,22.7293813 41.4203408,21.9733551 C42.3123599,21.2181435 43.157114,20.5680261 43.9546032,20.0238175 C44.751233,19.479609 45.3407562,19.2075047 45.7240323,19.2075047 C46.0746525,19.2075047 46.4080855,19.2840849 46.7277686,19.4348014 C47.0465924,19.5863325 47.3336198,19.7680069 47.5879913,19.9790099 C47.8432222,20.1900129 48.0434539,20.4319739 48.1861082,20.7040782 C48.3296219,20.9761825 48.4018084,21.2181435 48.4018084,21.4291465 C48.4018084,21.7012508 48.2411075,22.0865961 47.923143,22.5851823 C47.6043192,23.0837686 47.253699,23.5978339 46.8712823,24.1265635 C46.4888656,24.6561077 46.1459797,25.139215 45.8426244,25.5775147 C45.5401285,26.0158144 45.420677,26.2952509 45.4842699,26.415824 L52.3222239,19.7517132 L55,19.7517132 C53.3431475,21.4739541 51.8444179,23.0161499 50.5055298,24.3758566" id="Fill-3" fill="#FEFEFE"></path>
                <path d="M73,20.7986302 C72.9371587,20.7986302 72.9069949,20.8289528 72.9069949,20.8895978 L69.9224524,23.8997249 C69.8294473,23.991512 69.6115975,24.2037698 69.2697408,24.5373178 C68.9278842,24.8733244 68.4846436,25.2675174 67.940857,25.7239946 C67.3970703,26.1796523 66.7753604,26.666452 66.0757274,27.1827548 C65.3760943,27.7006966 64.6387565,28.1711058 63.8620381,28.5972604 C63.0844818,29.0225956 62.2918436,29.3799099 61.4841235,29.6683838 C60.6747277,29.9576772 59.8829274,30.1019142 59.106209,30.1019142 L59.0592875,30.1019142 C58.1568865,30.1019142 57.4270897,29.9494819 56.8682211,29.645437 C56.3085146,29.3422116 55.8577331,29.0070245 55.5158765,28.6423345 C55.1430181,28.2169994 54.8631649,27.7301996 54.6763168,27.1827548 C55.4220335,27.1827548 56.2691341,26.8869051 57.2176187,26.2935667 C58.1652654,25.7002283 59.106209,24.9560967 60.0379359,24.0595329 C60.9713386,23.162969 61.856144,22.1893695 62.6957037,21.1403735 C63.5352634,20.0921969 64.2340585,19.119417 64.793765,18.2220336 C65.3534714,17.3262893 65.71041,16.5805186 65.8662564,15.9879998 C66.0212649,15.3946614 65.8964202,15.0988117 65.4933981,15.0988117 C65.0576984,15.0988117 64.4669903,15.3872856 63.7221115,15.965053 C62.9755569,16.5428203 62.1435382,17.3098987 61.2268932,18.2679272 C60.3094103,19.2251361 59.3458438,20.3044547 58.3361937,21.5050635 C57.3265436,22.7064918 56.3470573,23.9456185 55.3994106,25.2216238 C54.4500881,26.4992683 53.5728237,27.7531464 52.7651036,28.9840777 C51.9565456,30.2150091 51.2887521,31.3172745 50.7600474,32.2900544 C50.1391754,34.0840016 49.6724741,35.7402681 49.3616191,37.2613124 C49.0507642,38.7807177 49.0197625,40.02722 49.268614,41 C48.5849008,41 47.9238103,40.9549259 47.2870186,40.8631388 C46.6502268,40.7721712 46.0905204,40.5967921 45.6087371,40.3394603 C45.126116,40.0804894 44.7390136,39.7157993 44.4424027,39.2453902 C44.1474676,38.7733419 44,38.1726278 44,37.4440672 C44,36.6229 44.2873942,35.4517942 44.8621825,33.9315694 C45.4378088,32.4113446 46.1751466,30.7403266 47.0775476,28.9160569 C47.9791107,27.0917872 48.958597,25.2453902 50.0134928,23.3752268 C51.0709023,21.5050635 52.0889313,19.7947082 53.0684176,18.2449804 C54.047066,16.6944331 54.9017075,15.4331792 55.6323423,14.4603992 C56.3629771,13.4876193 56.8523013,13 57.1003149,13 C57.2251596,13 57.4195487,13.0688404 57.68432,13.2057016 C57.9474156,13.3425628 58.2121869,13.5097465 58.4761203,13.7080724 C58.7400537,13.9055786 58.9738234,14.1334075 59.1757534,14.3915589 C59.3776834,14.6505298 59.4782295,14.9013054 59.4782295,15.1438857 C58.6696715,16.3600656 57.8242466,17.7590002 56.9377655,19.33987 C56.0512843,20.9199204 55.1581,22.5770064 54.2573748,24.3103085 L55.2821068,23.0334836 C55.5937997,22.5171808 56.0127416,21.9156471 56.5414464,21.2313411 C57.0693132,20.5478546 57.6524804,19.8340455 58.2892722,19.0882749 C58.9269019,18.3441433 59.5955332,17.6057484 60.2951663,16.8771878 C60.9939615,16.1469882 61.6709717,15.4938243 62.3228453,14.9160569 C62.9755569,14.3382895 63.5821849,13.8752561 64.1410534,13.5253176 C64.7007599,13.175379 65.1666233,13 65.5403196,13 C65.8503366,13 66.208113,13.0770356 66.6119731,13.2286484 C67.0158331,13.3810806 67.3970703,13.5859627 67.7540088,13.8449336 C68.1117853,14.1030849 68.4142614,14.4145056 68.6639508,14.7791957 C68.9119644,15.1438857 69.0368091,15.5544694 69.0368091,16.010127 C69.0368091,16.5272493 68.9119644,17.1730375 68.6639508,17.9483112 C68.4142614,18.7235849 68.0807836,19.5521278 67.6610037,20.4339402 C67.2420618,21.3157525 66.7594406,22.2196921 66.215654,23.147398 C65.6718673,24.0751039 65.089538,24.9479014 64.4669903,25.7690687 C64.187137,26.1649008 64.1561353,26.3099573 64.3739851,26.2025991 C64.591835,26.0968799 64.8943111,25.8993736 65.2830892,25.6092607 C65.6718673,25.3216063 66.0531045,25.0167418 66.4259628,24.6979453 C66.7988212,24.3783293 67.0007512,24.1890183 67.0317529,24.1275537 L70.3891537,20.7986302 L73,20.7986302 Z" id="Fill-5" fill="#FEFEFE"></path>
                <path d="M92,20.7986302 C91.9371587,20.7986302 91.9069949,20.8289528 91.9069949,20.8895978 L88.9224524,23.8997249 C88.8294473,23.991512 88.6115975,24.2037698 88.2697408,24.5373178 C87.9278842,24.8733244 87.4846436,25.2675174 86.940857,25.7239946 C86.3970703,26.1796523 85.7753604,26.666452 85.0757274,27.1827548 C84.3760943,27.7006966 83.6387565,28.1711058 82.8620381,28.5972604 C82.0844818,29.0225956 81.2918436,29.3799099 80.4841235,29.6683838 C79.6747277,29.9576772 78.8829274,30.1019142 78.106209,30.1019142 L78.0592875,30.1019142 C77.1568865,30.1019142 76.4270897,29.9494819 75.8682211,29.645437 C75.3085146,29.3422116 74.8577331,29.0070245 74.5158765,28.6423345 C74.1430181,28.2169994 73.8631649,27.7301996 73.6763168,27.1827548 C74.4220335,27.1827548 75.2691341,26.8869051 76.2176187,26.2935667 C77.1652654,25.7002283 78.106209,24.9560967 79.0379359,24.0595329 C79.9713386,23.162969 80.856144,22.1893695 81.6957037,21.1403735 C82.5352634,20.0921969 83.2340585,19.119417 83.793765,18.2220336 C84.3534714,17.3262893 84.71041,16.5805186 84.8662564,15.9879998 C85.0212649,15.3946614 84.8964202,15.0988117 84.4933981,15.0988117 C84.0576984,15.0988117 83.4669903,15.3872856 82.7221115,15.965053 C81.9755569,16.5428203 81.1435382,17.3098987 80.2268932,18.2679272 C79.3094103,19.2251361 78.3458438,20.3044547 77.3361937,21.5050635 C76.3265436,22.7064918 75.3470573,23.9456185 74.3994106,25.2216238 C73.4500881,26.4992683 72.5728237,27.7531464 71.7651036,28.9840777 C70.9565456,30.2150091 70.2887521,31.3172745 69.7600474,32.2900544 C69.1391754,34.0840016 68.6724741,35.7402681 68.3616191,37.2613124 C68.0507642,38.7807177 68.0197625,40.02722 68.268614,41 C67.5849008,41 66.9238103,40.9549259 66.2870186,40.8631388 C65.6502268,40.7721712 65.0905204,40.5967921 64.6087371,40.3394603 C64.126116,40.0804894 63.7390136,39.7157993 63.4424027,39.2453902 C63.1474676,38.7733419 63,38.1726278 63,37.4440672 C63,36.6229 63.2873942,35.4517942 63.8621825,33.9315694 C64.4378088,32.4113446 65.1751466,30.7403266 66.0775476,28.9160569 C66.9791107,27.0917872 67.958597,25.2453902 69.0134928,23.3752268 C70.0709023,21.5050635 71.0889313,19.7947082 72.0684176,18.2449804 C73.047066,16.6944331 73.9017075,15.4331792 74.6323423,14.4603992 C75.3629771,13.4876193 75.8523013,13 76.1003149,13 C76.2251596,13 76.4195487,13.0688404 76.68432,13.2057016 C76.9474156,13.3425628 77.2121869,13.5097465 77.4761203,13.7080724 C77.7400537,13.9055786 77.9738234,14.1334075 78.1757534,14.3915589 C78.3776834,14.6505298 78.4782295,14.9013054 78.4782295,15.1438857 C77.6696715,16.3600656 76.8242466,17.7590002 75.9377655,19.33987 C75.0512843,20.9199204 74.1581,22.5770064 73.2573748,24.3103085 L74.2821068,23.0334836 C74.5937997,22.5171808 75.0127416,21.9156471 75.5414464,21.2313411 C76.0693132,20.5478546 76.6524804,19.8340455 77.2892722,19.0882749 C77.9269019,18.3441433 78.5955332,17.6057484 79.2951663,16.8771878 C79.9939615,16.1469882 80.6709717,15.4938243 81.3228453,14.9160569 C81.9755569,14.3382895 82.5821849,13.8752561 83.1410534,13.5253176 C83.7007599,13.175379 84.1666233,13 84.5403196,13 C84.8503366,13 85.208113,13.0770356 85.6119731,13.2286484 C86.0158331,13.3810806 86.3970703,13.5859627 86.7540088,13.8449336 C87.1117853,14.1030849 87.4142614,14.4145056 87.6639508,14.7791957 C87.9119644,15.1438857 88.0368091,15.5544694 88.0368091,16.010127 C88.0368091,16.5272493 87.9119644,17.1730375 87.6639508,17.9483112 C87.4142614,18.7235849 87.0807836,19.5521278 86.6610037,20.4339402 C86.2420618,21.3157525 85.7594406,22.2196921 85.215654,23.147398 C84.6718673,24.0751039 84.089538,24.9479014 83.4669903,25.7690687 C83.187137,26.1649008 83.1561353,26.3099573 83.3739851,26.2025991 C83.591835,26.0968799 83.8943111,25.8993736 84.2830892,25.6092607 C84.6718673,25.3216063 85.0531045,25.0167418 85.4259628,24.6979453 C85.7988212,24.3783293 86.0007512,24.1890183 86.0317529,24.1275537 L89.3891537,20.7986302 L92,20.7986302 Z" id="Fill-7" fill="#FEFEFE"></path>
                <path d="M99.1656682,10.6555713 C99.0488774,10.6555713 98.7941325,10.5638574 98.4014333,10.3796034 C98.0095179,10.1953494 97.601926,9.98878659 97.1810089,9.75908876 C96.759308,9.52939093 96.3807178,9.31539188 96.0468059,9.11543909 C95.7121102,8.91631256 95.5451542,8.80146364 95.5451542,8.77089235 C95.5451542,8.74032106 95.6470522,8.44121813 95.8508482,7.87440982 C96.0530765,7.30677526 96.2866581,6.6325543 96.5484575,5.85092068 C96.810257,5.06928706 97.0571637,4.24138338 97.2891775,3.36886213 C97.5219753,2.49468839 97.6677678,1.70561851 97.7257712,1 C98.0157886,1 98.4084878,1.09254013 98.9038688,1.27596789 C99.3976821,1.46022191 99.8695482,1.70561851 100.321818,2.0121577 C100.771737,2.31869688 101.164436,2.6789424 101.499132,3.09289424 C101.83226,3.50601983 102,3.95880548 102,4.44877243 C102,4.93956563 101.876155,5.53694523 101.630032,6.24173749 C101.382341,6.947356 101.09154,7.62901322 100.756845,8.28753541 C100.422933,8.9477101 100.10313,9.50542965 99.7982196,9.96565156 C99.4925256,10.4258735 99.2808913,10.6555713 99.1656682,10.6555713 Z M98.6859638,19.6212229 L101.12838,19.6212229 C99.7033761,21.3679178 98.4084878,22.9311851 97.2460668,24.3101983 C96.7514697,24.8927054 96.249818,25.4677762 95.7418958,26.0345845 C95.2324058,26.6022191 94.7605397,27.0996223 94.323946,27.5292729 C93.8881362,27.9580973 93.5017076,28.3100803 93.1685796,28.5860482 C92.8338839,28.8620161 92.5932479,29 92.449023,29 C91.6636247,29 90.9871788,28.8851511 90.4204692,28.6554533 C89.8529758,28.4257554 89.3952186,28.1423513 89.046414,27.8052408 C88.6976093,27.4681303 88.4358099,27.1301936 88.2610156,26.7930831 C88.0870052,26.4559726 88,26.1651322 88,25.9197356 C88,25.0620869 88.1810649,24.0119216 88.5447623,22.7700661 C88.9084598,21.5290368 89.3803258,20.2491737 89.9627121,18.9313031 C90.5435306,17.6142587 91.1980292,16.3261331 91.9254241,15.0694051 C92.6512513,13.8126771 93.3786462,12.7088055 94.1060411,11.7586166 C94.4548458,11.7586166 94.8326521,11.8205855 95.2394603,11.9428706 C95.6470522,12.0659821 96.0248586,12.2262748 96.3736633,12.4262276 C96.7232518,12.6253541 97.0211074,12.8624882 97.2680141,13.1384561 C97.5149208,13.414424 97.638766,13.7052644 97.638766,14.0118036 C96.504563,15.6056421 95.5522087,17.2226157 94.7817032,18.8627243 C94.0111976,20.5020066 93.430379,21.9355524 93.0376799,23.1617092 C92.6449807,24.3870397 92.4701864,25.2835222 92.514081,25.8511568 C92.5571916,26.4179651 92.8260456,26.4254013 93.3206427,25.8734655 L98.6859638,19.6212229 Z" id="Fill-9" fill="#FEFEFE"></path>
                <g id="Group-13" transform="translate(97.000000, 0.000000)">
                    <mask id="mask-2" fill="white">
                        <use xlink:href="#path-1"></use>
                    </mask>
                    <g id="Clip-12"></g>
                    <path d="M30.3388622,2.98200638 C29.8411865,3.5985383 29.2429703,4.46815532 28.5442135,5.59168723 C27.8446189,6.71521915 27.0989432,8.00055957 26.3071865,9.44687872 C25.5137541,10.8940277 24.6901595,12.4714532 23.8355649,14.1791553 C22.9801324,15.8876872 22.1565378,17.6426872 21.3647811,19.4433255 C20.5721865,21.2439638 19.8332135,23.0603681 19.1503757,24.8917085 C18.4658622,26.7230489 17.8919432,28.485517 17.4252676,30.178283 C16.9585919,31.8702191 16.6167541,33.4634106 16.3989162,34.9570277 C16.1819162,36.4498149 16.1500784,37.7509213 16.3059162,38.8586872 C15.7152405,38.8586872 15.0776459,38.7665809 14.3948081,38.5815383 C13.7102946,38.3973255 13.0735378,38.0969426 12.4828622,37.6812191 C11.8921865,37.2654957 11.4028892,36.7111979 11.0149703,36.0191553 C10.6262135,35.326283 10.4318351,34.4724319 10.4318351,33.4567723 C10.4318351,32.6560277 10.5558351,31.7258362 10.8055108,30.6628787 C11.052673,29.6015809 11.3953486,28.4548149 11.8301865,27.2234106 C11.021673,27.3777511 10.0422405,27.5154957 8.89356486,27.639134 C7.74321351,27.7619426 6.42278108,27.8233468 4.93059189,27.8233468 C4.71275405,27.8233468 4.37091622,27.7005383 3.90507838,27.4540915 C3.43924054,27.2076447 2.97256486,26.8466872 2.50588919,26.3695596 C2.04005135,25.8916021 1.62783514,25.3231979 1.27091622,24.6610277 C0.913159459,23.9988574 0.7347,23.2528787 0.7347,22.4214319 C0.7347,21.8372617 1.06145676,20.9369426 1.71413243,19.7204745 C2.36597027,18.5048362 3.18956486,17.1423255 4.18491622,15.6337723 C5.17942973,14.1260489 6.27448378,12.5560915 7.47175405,10.9239 C8.66818649,9.2925383 9.8177,7.75411277 10.9211324,6.30696383 C12.0245649,4.86064468 13.0039973,3.59024043 13.8585919,2.49741064 C14.7131865,1.40541064 15.2963216,0.643665957 15.6071595,0.212176596 C16.0729973,0.212176596 16.5547541,0.311751064 17.0524297,0.511729787 C17.5484297,0.713368085 17.9924838,0.943219149 18.3812405,1.20460213 C18.7691595,1.46681489 19.0875378,1.74396383 19.3363757,2.03521915 C19.5852135,2.32896383 19.7092135,2.56711277 19.7092135,2.75215532 C17.6883486,5.30707021 15.8325378,7.82298511 14.1384297,10.3007298 C12.4443216,12.7793043 10.9915108,15.003134 9.77915946,16.9722191 C8.56764595,18.9429638 7.61837568,20.5743255 6.9347,21.867134 C6.25102432,23.1599426 5.91002432,23.9150489 5.91002432,24.129134 C5.91002432,24.3457085 6.11110541,24.484283 6.51578108,24.5448574 C6.91961892,24.6079213 7.44829459,24.6220277 8.10097027,24.5913255 C8.75364595,24.5614532 9.49932162,24.5224532 10.3388351,24.4759851 C11.1783486,24.4303468 12.0480243,24.406283 12.9495378,24.406283 C13.6952135,22.6828149 14.534727,20.8904745 15.4672405,19.0276021 C16.3989162,17.1655596 17.3699703,15.3566234 18.3812405,13.6024532 C19.3908351,11.848283 20.3853486,10.1853894 21.3647811,8.61543191 C22.3433757,7.04547447 23.2365108,5.67632553 24.0450243,4.50632553 C24.8527,3.33715532 25.5439162,2.40530426 26.1203486,1.71243191 C26.6942676,1.02038936 27.0754838,0.673538298 27.2623216,0.673538298 C27.6661595,0.673538298 28.0540784,0.751538298 28.4277541,0.904219149 C28.8005919,1.05938936 29.1273486,1.25107021 29.4071865,1.48175106 C29.6870243,1.71243191 29.9115649,1.96634681 30.0824838,2.24349574 C30.2525649,2.52064468 30.3388622,2.76709149 30.3388622,2.98200638" id="Fill-11" fill="#FEFEFE" mask="url(#mask-2)"></path>
                </g>
            </g>
        </g>
    </g>
</svg>